<?xml version="1.0" standalone="no"?>
<!DOCTYPE svg PUBLIC "-//W3C//DTD SVG 20010904//EN"
 "http://www.w3.org/TR/2001/REC-SVG-20010904/DTD/svg10.dtd">
<svg version="1.0" xmlns="http://www.w3.org/2000/svg"
 width="418.000000pt" height="478.000000pt" viewBox="0 0 418.000000 478.000000"
 preserveAspectRatio="xMidYMid meet">

<g transform="translate(0.000000,478.000000) scale(0.100000,-0.100000)"
fill="#000000" stroke="none">
<path d="M2253 4765 c-40 -17 -48 -32 -84 -163 -17 -59 -77 -249 -134 -422
-57 -173 -114 -359 -126 -412 -17 -72 -27 -98 -38 -98 -9 0 -88 9 -175 20
-299 37 -469 23 -714 -59 -142 -47 -226 -88 -353 -172 -100 -66 -267 -226
-352 -337 -173 -224 -267 -557 -267 -942 0 -349 81 -668 259 -1015 229 -448
651 -913 966 -1065 113 -55 260 -92 365 -93 83 -1 88 0 200 53 l115 55 145 0
145 0 140 -54 c131 -50 146 -53 230 -54 108 -1 261 36 370 88 403 194 894 796
1100 1349 95 256 130 456 130 741 -1 299 -37 510 -124 722 -70 169 -142 269
-286 397 -250 221 -397 298 -744 388 -154 40 -159 41 -371 45 -193 4 -225 3
-315 -17 -148 -31 -235 -48 -235 -44 0 21 36 163 56 223 52 151 199 420 304
558 49 63 52 70 48 115 -6 63 -73 153 -138 186 -51 25 -72 27 -117 7z m-638
-1130 c56 -9 122 -22 146 -29 l44 -14 -60 -3 c-33 -2 -82 -2 -109 -1 -133 7
-382 -32 -532 -84 -498 -171 -821 -563 -915 -1109 -42 -248 -25 -606 41 -869
11 -44 19 -81 17 -83 -9 -8 -68 140 -96 237 -68 238 -75 292 -76 565 0 203 3
267 18 340 37 179 104 352 180 465 17 25 87 103 156 173 173 177 301 262 511
340 216 80 451 105 675 72z"/>
</g>
</svg>
